<svg version="1.1" id="Layer_1" xmlns="http://www.w3.org/2000/svg" xmlns:xlink="http://www.w3.org/1999/xlink" x="0px" y="0px"
	 width="239.364px" height="246.697px" viewBox="0 0 239.364 246.697" enable-background="new 0 0 239.364 246.697"
	 xml:space="preserve">
<rect x="2265.147" y="-10262.16" display="none" width="3344.882" height="12188.977"/>
<g>
	<path fill-rule="evenodd" clip-rule="evenodd" fill="#F9EB33" d="M201.106,32.774c2.072-3.563,3.181-7.537,4.808-11.289
		c0.589-1.361,1.094-2.757,1.719-4.343c2.875,1.32,5.578,2.561,8.484,3.896c-2.049,3.004-3.997,5.861-6.193,9.08
		c3.482,0.412,6.517,0.771,9.607,1.135c0.099,1.192-0.945,1.675-1.539,2.403c-1.892,2.326-4.316,4.192-5.895,6.791
		c-0.305,0.091-0.573,0.223-0.672,0.56c-3.718,3.918-7.436,7.836-11.153,11.753c-0.129-0.066-0.258-0.131-0.387-0.196
		c2.412-5.605,4.825-11.21,7.404-17.202c-3.062,0.603-5.207,2.356-7.976,2.802c0.569-1.578,1.04-2.885,1.511-4.188
		C201.224,33.646,201.152,33.207,201.106,32.774z"/>
	<path fill-rule="evenodd" clip-rule="evenodd" fill="#C34227" d="M210.959,56.005c-2.044,4.081-5.818,5.688-9.92,6.252
		c-5.24,0.72-9.848-0.865-13.229-5.213c0.118-0.107,0.235-0.217,0.35-0.326c0.682,0.587,1.34,1.202,2.051,1.75
		c4.011,3.088,8.439,3.876,13.293,2.418c2.999-0.901,5.134-2.99,7.261-5.11C210.834,55.849,210.898,55.925,210.959,56.005z"/>
	<path fill-rule="evenodd" clip-rule="evenodd" fill="#C34227" d="M187.014,55.979c-3.805-4.792-3.967-11.613-0.392-16.512
		c0.098,0.091,0.197,0.182,0.293,0.268c-0.304,0.738-0.6,1.483-0.911,2.22c-1.66,3.921-1.495,7.792,0.308,11.621
		c0.34,0.722,0.679,1.443,1.018,2.165C187.227,55.823,187.122,55.902,187.014,55.979z"/>
	<path fill-rule="evenodd" clip-rule="evenodd" fill="#C34227" d="M211.426,41.007c0.099-0.337,0.367-0.469,0.672-0.56
		c2.983,5.017,2.497,11.651-1.141,15.556c-0.059-0.078-0.123-0.154-0.193-0.228c0.465-0.996,0.993-1.966,1.383-2.989
		C213.676,48.761,213.878,44.798,211.426,41.007z"/>
	<path fill-rule="evenodd" clip-rule="evenodd" fill="#C34227" d="M201.106,32.774c0.045,0.433,0.117,0.871-0.281,1.2
		c-2.563-1.419-5.007-0.444-7.386,0.492c-1.46,0.574-2.797,1.464-4.188,2.21l-0.177-0.179
		C192.432,33.148,196.434,31.877,201.106,32.774z"/>
	<path fill-rule="evenodd" clip-rule="evenodd" fill="#C34227" d="M186.622,39.468c0.277-1.055,0.907-1.839,1.839-2.391
		c0.111,0.101,0.226,0.199,0.341,0.296c-0.525,0.871-1.086,1.712-1.883,2.364C186.819,39.649,186.72,39.559,186.622,39.468z"/>
	<path fill-rule="evenodd" clip-rule="evenodd" fill="#C34227" d="M187.81,57.044c-0.491-0.188-0.642-0.628-0.793-1.066
		c0.105-0.075,0.21-0.154,0.313-0.236c0.46,0.168,0.608,0.603,0.831,0.975C188.044,56.827,187.928,56.937,187.81,57.044z"/>
	<path fill-rule="evenodd" clip-rule="evenodd" fill="#C34227" d="M188.461,37.077c0.073-0.332,0.274-0.53,0.613-0.579
		c0,0,0.177,0.179,0.171,0.173c-0.151,0.23-0.298,0.467-0.443,0.702C188.687,37.276,188.572,37.178,188.461,37.077z"/>
</g>
<g>
	<path fill-rule="evenodd" clip-rule="evenodd" fill="#C6C8CA" d="M172.632,241.037c0.009-0.164,0.023-0.327,0.047-0.488
		c1.383-0.097,2.766-0.193,4.148-0.292c0.184,0.026,0.348,0.097,0.493,0.211c0.003,0.189,0.01,0.38,0.022,0.569
		C175.772,241.037,174.203,241.037,172.632,241.037z"/>
	<path fill-rule="evenodd" clip-rule="evenodd" fill="#1FACE2" d="M164.706,131.94c1.354-0.256,2.444-1.074,3.586-1.746
		c11.696-6.882,23.242,0.344,25.856,12.136c1.441,6.503,0.514,12.876-0.983,19.229c-1.328,5.644-3.101,11.179-3.976,16.936
		c-0.321,2.115-0.408,4.218-0.452,6.338c-0.048,2.304-0.053,2.305-2.335,2.495c-0.668,0.056-1.337,0.101-1.998,0.148
		c-0.356,0.149-0.72,0.303-1.084,0.454c-2.706-0.403-5.265,0.37-7.841,0.991c-4.924,1.189-8.369,4.798-12.34,7.547
		c-0.223,0.013-0.444,0.044-0.662,0.092c-3.257-0.554-4.569-2.607-4.854-5.782c-0.333-3.711,0.164-7.349,0.548-11.001
		c0.164-1.556,0.368-3.1,0.312-4.666c2.286-5.703,4.613-11.39,6.843-17.115c1.459-3.745,3.062-7.483,2.612-11.666
		c-0.126-1.165,0.41-2.799-1.133-3.167c-1.463-0.35-1.964,1.183-2.539,2.237c-1.719,3.151-3.16,6.422-4.234,9.857
		c-2.678,8.563-8.621,13.635-17.168,15.809c-6.637,1.688-13.272,2.363-20.201,1.489c-8.055-1.018-14.342-4.347-19.172-10.876
		c-1.898-2.566-4.11-5.061-7.293-6.29c-3.169-1.223-5.07,0.066-4.989,3.422c0.056,2.314,1.084,4.312,2.089,6.314
		c1.083,6.008-0.619,11.47-3.31,16.729c-2.498,4.882-5.688,9.321-8.824,13.797c-1.983,2.83-3.937,5.684-5.832,8.574
		c-1.837,2.801-3.396,5.757-4.629,9.051c-2.063-0.692-2.445-3.138-4.26-3.97c-0.066-0.432-0.243-0.794-0.638-1.02
		c-2.601-3.671-5.743-6.792-9.556-9.189c-1.68-1.056-3.406-2.139-5.559-1.848c-0.226-0.142-0.453-0.283-0.679-0.425
		c-1.651-0.333-3.293-0.018-5.116,0.319c0.66-4.017,1.894-7.58,3.184-11.12c4.045-11.097,9.2-21.605,16.625-30.882
		c1.117-1.396,2.345-2.707,3.576-4.006c6.275-6.623,14.125-9.03,23.061-8.77c4.911,0.144,9.729,1.269,14.65,1.16l-0.04-0.067
		c-0.015,0.618,0.427,0.424,0.757,0.425c3.315,0.485,6.625,0.927,9.992,1.003c7.438,0.17,14.694-0.942,21.865-2.787
		C147.685,139.756,156.264,136.024,164.706,131.94z"/>
	<path fill-rule="evenodd" clip-rule="evenodd" fill="#009F58" d="M164.706,131.94c-8.442,4.084-17.021,7.815-26.14,10.161
		c-7.171,1.845-14.427,2.957-21.865,2.787c-3.366-0.076-6.676-0.518-9.992-1.002c-0.253-0.142-0.506-0.284-0.757-0.426l0.04,0.067
		c0.002-0.217,0.094-0.498-0.008-0.642c-2.515-3.58-4.477-7.479-6.617-11.277c-2.508-4.45-4.776-5.197-9.423-3.199
		c-1.426,0.613-2.75,1.486-4.065,2.328c-1.13,0.721-2.171,1.578-3.267,2.355c-4.826,3.419-6.598,3.393-11.375-0.143
		c-0.212-0.249-0.424-0.502-0.636-0.755c-2.709-3.835-5.532-7.593-7.895-11.661c-0.16-0.261-0.319-0.521-0.479-0.782
		c-0.253-0.967-0.426-1.963-0.774-2.893c-1.179-3.148-0.172-5.671,2.131-7.85c2.288-2.164,4.903-3.884,7.675-5.332
		c6.728-3.513,13.326-7.243,19.6-11.523c2.318-1.581,4.974-2.493,7.397-3.859c1.846,2.621,3.543,5.346,5.677,7.763
		c3.762,4.262,8.042,7.315,14.13,6.451c3.39,1.089,6.841,0.91,10.231,0.195c5.264-1.11,8.643-4.422,10.336-9.499
		c0.822-2.463,1.142-4.987,1.148-7.587c0.007-2.955-0.748-5.518-3.149-7.419c0.155-0.887,0.31-1.772,0.464-2.658
		c7.159-0.187,13.927,1.577,20.498,4.21c8.425,3.378,16.267,7.859,23.842,12.828c0.746,0.489,1.456,1.038,2.15,1.599
		c3.12,2.522,3.538,3.983,2.319,7.861c-1.302,4.143-2.59,8.289-3.886,12.433c-0.412,0.14-0.531,0.448-0.489,0.85
		c-2.133,3.405-2.123,3.375-6.184,2.038c-3.667-1.207-7.2-2.888-11.469-3.519C163.657,120.052,164.786,125.98,164.706,131.94z"/>
	<path fill-rule="evenodd" clip-rule="evenodd" fill="#EC512F" d="M96.392,84.501c-0.381-0.035-0.762-0.071-1.143-0.106
		c-0.593-1.08-1.782-0.779-2.684-1.125c-3.877-1.49-7.146-3.537-8.797-7.676c-0.826-2.072-0.535-3.68,0.814-5.252
		c0.921-1.072,1.892-2.103,2.855-3.17c-2.226-1.557-4.603-3.023-6.756-4.768c-4.063-3.295-6.402-7.47-5.606-12.891
		c0.663-4.521,3.46-9.064,8.005-9.623c2.313-0.286,4.695-0.289,7.028,0.141c2.677,0.492,2.658,0.499,3.122-2.084
		c0.387-2.155,1.255-4.071,3.11-5.363c4.85-3.376,9.476-2.634,13.155,2.07c1.546,1.977,2.561,2.253,4.931,1.285
		c0.725-0.296,1.39-0.748,2.127-1c5.893-2.015,13.049-3.123,17.913,3.317c0.768,1.017,1.596,2.239,3.174,2.244l-0.003-0.006
		c-0.044,1.031,0.454,1.678,1.417,1.991c2.176,2.437,5.093,3.228,8.154,3.291c6.271,0.129,8.047,4.034,8.101,8.539
		c0.015,1.229-0.036,2.459-0.104,3.685c-0.229,4.085-2.085,7.201-5.512,9.456c-2.722,1.792-5.675,3.12-8.595,4.518
		c-1.408,0.675-2.889,1.203-4.159,2.143c-7.725,1.621-15.316,3.764-22.917,5.868c-0.286-0.158-0.588-0.292-0.854-0.479
		c-1.115-0.781-2.077-2.41-3.559-1.749c-1.374,0.614-0.537,2.384-0.87,3.6C104.622,82.404,100.507,83.453,96.392,84.501z"/>
	<path fill-rule="evenodd" clip-rule="evenodd" fill="#C34227" d="M137.64,40.501c-1.578-0.005-2.406-1.228-3.174-2.244
		c-4.864-6.44-12.02-5.332-17.913-3.317c-0.737,0.252-1.402,0.704-2.127,1c-2.37,0.968-3.385,0.691-4.931-1.285
		c-3.679-4.704-8.305-5.446-13.155-2.07c-1.855,1.292-2.723,3.208-3.11,5.363c-0.464,2.583-0.445,2.576-3.122,2.084
		c-2.333-0.43-4.715-0.427-7.028-0.141c-4.545,0.559-7.342,5.102-8.005,9.623c-0.795,5.421,1.543,9.596,5.606,12.891
		c2.153,1.744,4.53,3.211,6.756,4.768c-0.963,1.067-1.934,2.098-2.855,3.17c-1.349,1.572-1.641,3.18-0.814,5.252
		c1.651,4.139,4.92,6.186,8.797,7.676c0.902,0.346,2.091,0.045,2.684,1.125c-3.432,1.199-6.98,1.465-10.571,1.23
		c-3.302-0.215-6.022-1.702-8.125-4.211c-2.837-3.385-2.377-6.979-0.576-10.684c0.565-1.161,2.166-2.119,1.555-3.478
		c-0.455-1.008-1.79-1.612-2.71-2.423c-3.336-2.935-6.228-6.116-6.677-10.863c-0.821-8.686,5.36-16.718,13.368-16.325
		c1.824,0.09,2.514-0.707,2.963-2.387c1.888-7.063,6.481-11.294,13.685-12.702c4.193-0.819,7.775,0.08,10.543,3.486
		c0.707,0.869,1.427,1.734,2.051,2.662c1.689,2.505,4.044,3.012,6.781,2.29c1.73-0.456,3.41-1.101,5.14-1.559
		c4.624-1.222,8.139-0.049,10.927,3.774C135.244,35.457,136.814,37.782,137.64,40.501z"/>
	<path fill-rule="evenodd" clip-rule="evenodd" fill="#009F58" d="M46.94,98.096c-0.38-2.334,0.486-4.386,1.112-6.484
		c1.598-5.35,3.704-10.539,5.085-15.958c0.785-3.077,1.58-6.161,1.46-9.384c-0.105-2.821-0.832-3.563-3.62-3.709
		c-1.439-0.075-2.88,0.048-4.316-0.266c-2.739-0.596-2.849-0.596-1.931-3.11c2.08-5.696,3.883-11.49,6.18-17.109
		c1.673-4.095,3.487-8.149,4.348-12.528c0.63-3.207-0.435-4.758-3.666-5.111c-2.788-0.305-5.583-0.125-8.358,0.258
		c-1.335,0.184-2.66,0.438-4.022,0.163c-0.338-0.992,0.38-1.65,0.751-2.378c3.672-7.204,7.795-14.18,10.936-21.653
		c0.162-0.388,0.198-1.01,0.924-0.772c0.617,0.203,0.599,0.652,0.483,1.157c-0.622,2.719-1.243,5.438-1.86,8.158
		c-0.319,1.407-0.749,2.803-0.923,4.228c-0.412,3.374,1.324,5.614,4.692,6.037c1.619,0.203,3.283,0.041,4.904,0.23
		c4.858,0.57,5.233,1.209,3.741,5.796c-1.375,4.225-3.317,8.206-5.196,12.218c-2.491,5.317-5.038,10.619-6.111,16.467
		c-0.428,2.328-0.44,2.311,1.976,2.36c2.021,0.04,4.048,0.049,6.061,0.217c1.003,0.083,1.775,0.515,1.388,1.896
		c-3.638,12.979-7.143,26.003-13.311,38.098C47.458,97.325,47.184,97.703,46.94,98.096z"/>
	<path fill-rule="evenodd" clip-rule="evenodd" fill="#0091C3" d="M93.299,165.126c-1.005-2.003-2.033-4-2.089-6.314
		c-0.081-3.355,1.82-4.645,4.989-3.422c3.183,1.229,5.395,3.724,7.293,6.29c4.831,6.529,11.118,9.858,19.172,10.876
		c6.929,0.874,13.564,0.198,20.201-1.489c8.547-2.174,14.49-7.245,17.168-15.809c1.075-3.436,2.515-6.706,4.234-9.857
		c0.574-1.055,1.076-2.587,2.539-2.237c1.543,0.368,1.007,2.002,1.133,3.167c0.45,4.183-1.152,7.921-2.612,11.666
		c-2.229,5.726-4.557,11.412-6.843,17.115c-3.578,0.869-6.892,2.543-10.498,3.354c-12.784,2.878-25.116,1.271-37.13-3.612
		c-5.203-2.115-10.061-4.875-14.697-8.033C95.243,166.196,94.448,165.36,93.299,165.126z"/>
	<path fill-rule="evenodd" clip-rule="evenodd" fill="none" stroke="#000000" stroke-width="0.031" stroke-miterlimit="10" d="
		M96.392,84.501c4.115-1.048,8.23-2.097,12.344-3.145c0.606,0.597,0.57,1.395,0.727,2.151c0.471,2.27,0.688,4.607,1.668,6.75
		c0.333,0.729,0.766,1.389,1.683,1.394c1.063,0.007,1.598-0.684,1.831-1.609c0.487-1.929,1.054-3.845,0.411-5.88
		c-0.432-1.365-0.696-2.783-1.035-4.177c7.601-2.104,15.193-4.247,22.917-5.868c0.052,0.475,0.104,0.95,0.157,1.425
		c-0.155,0.886-0.309,1.771-0.464,2.658c-1.577,6.993-4.601,13.115-9.919,18.146c-2.638,2.496-5.814,4.046-8.646,6.164
		c-6.087,0.864-10.368-2.189-14.13-6.451c-2.134-2.417-3.832-5.142-5.677-7.763C97.635,87.031,97.014,85.767,96.392,84.501z
		 M108.587,94.408c5.168,4.411,15.367,0.808,16.895-5.969C118.828,95.55,117.361,96.061,108.587,94.408z M124.691,82.217
		c-2.693-2.317-4.938-2.446-9.275-0.43C118.934,81.638,121.856,81.163,124.691,82.217z M105.886,84.102
		c-2.371-0.531-4.193,0.179-5.391,2.297C102.292,85.633,104.089,84.867,105.886,84.102z"/>
	<path fill-rule="evenodd" clip-rule="evenodd" fill="#A5A6A7" d="M62.227,119.753c0.16,0.261,0.32,0.521,0.48,0.782
		c-5.002,2.498-9.79,5.37-14.526,8.33c-9.622,6.009-18.573,12.947-26.709,20.802c-5.781,5.584-10.647,12.045-14.901,18.943
		c-2.309,3.741-3.961,7.698-5.139,11.873c-0.486,1.721-0.897,3.576,0.106,5.465c2.58-1.619,2.542-4.77,4.725-6.812
		c-0.244,2.722-2.137,4.762-1.551,7.375c1.908-0.384,2.261-1.925,2.791-3.209c0.588-1.426,0.625-3.044,1.39-4.428
		c0.233,0.46,0.538,0.831,1.101,0.877c0.175,0.402,0.329,0.815,0.528,1.205c1,1.968,2.548,2.135,3.755,0.342
		c0.423-0.631,0.682-1.406,0.869-2.152c0.461-1.839,0.837-3.697,1.248-5.548c0.143-0.642,0.195-1.378,1.381-1.149
		c0.058,0.707,0.124,1.473,0.181,2.24c0.067,0.899,0.131,1.938,1.117,2.2c0.884,0.237,1.303-0.727,1.76-1.321
		c0.542-0.706,1.036-1.469,1.429-2.267c1.377-2.803,2.896-5.558,4.004-8.468c1.896-4.976,5.173-8.816,9.141-12.202
		c6.6-5.63,14.266-9.498,21.983-13.257c4.516-2.199,9.134-4.184,13.213-7.179c0.212,0.253,0.424,0.506,0.636,0.755
		c-5.46,3.985-11.819,6.254-17.745,9.351c-8.016,4.189-15.941,8.569-22.014,15.558c-1.412,1.624-2.556,3.363-3.432,5.326
		c-1.457,3.26-2.983,6.491-4.533,9.711c-0.531,1.102-1.141,2.184-1.85,3.179c-1.697,2.378-2.362,2.444-4.772,0.634
		c-0.411,1.375-0.697,2.774-1.239,4.068c-1.397,3.333-3.972,3.589-6.32,0.535c-0.685,1.552-1.211,3.097-2.017,4.479
		c-1.052,1.81-1.559,1.862-3.924,1.038c-0.093-0.033-0.167-0.159-0.253-0.162c-0.902-0.035-1.962,1.117-2.673-0.218
		c-0.591-1.111-0.503-2.348-0.357-3.6c0.445-3.829,1.96-7.204,3.688-10.63c2.072-4.108,4.334-8.044,7.11-11.692
		c6.404-8.416,13.963-15.689,22.255-22.203C42.24,131.191,51.888,124.924,62.227,119.753z"/>
	<path fill-rule="evenodd" clip-rule="evenodd" fill="#C6C8CA" d="M104.691,243.187c0.513,0.995-0.216,1.884-0.269,2.834
		c-0.042,0.718-0.851,0.687-1.313,0.672c-0.297-0.01-1.089-0.419-0.772-0.908c0.553-0.856-0.654-1.839,0.322-2.563
		c0.163-0.311,0.563-0.584,0.233-0.988c-0.329-0.4-0.65-0.188-0.946,0.079c0.241-0.207,0.324-0.479,0.179-0.751
		c-0.235-0.44-0.694-0.469-0.929-0.137c-0.596,0.832-1.248,1.474-2.145,2.062c-0.67,0.437-0.922,0.29-1.353,0.033
		c-0.756-0.45-0.573-1.346-0.123-1.559c0.838-0.398,0.964-1.588,2.244-1.543c1.712,0.059-0.123-1.005,0.311-1.628
		c0.523-0.75-0.318-0.869-0.848-0.682c-1.395,0.494-2.505,0.029-3.504-0.893c-0.165-0.151-0.421-0.411-0.003-0.67
		c1.209-0.748,2.504-0.672,3.648-0.07c1.404,0.736,0.776-0.842,1.404-1.112c0.848-0.365,0.124-0.95-0.386-1.107
		c-1.045-0.323-1.072-1.41-1.694-2.035c-0.618-0.623-0.074-1.201,0.341-1.378c0.324-0.137,1.123-0.791,1.359,0.109
		c0.217,0.828,1.417,0.676,1.39,1.872c-0.023,1.032,0.313,0.894,1.181,0.876c0.991-0.022,1.729,0.022,1.087-1.275
		c-0.444-0.896,0.54-1.559,0.401-2.458c-0.056-0.369,0.671-0.902,1.015-0.7c0.376,0.223,1.345,0.405,1.003,1.012
		c-0.408,0.723,0.455,1.277-0.018,1.882c-0.958,1.229,0.374,1.731,0.625,2.805c1.107-0.919,1.442-2.134,2.687-2.541
		c0.634-0.206,1.072-0.32,1.505,0.105c0.492,0.484,0.467,1.161-0.13,1.447c-0.709,0.34-0.689,1.456-1.646,1.417
		c-1.528-0.062-0.914,1.044-0.869,1.71c0.085,1.303,1.144,0.354,1.689,0.637c-0.054,0.931-0.556,1.251-1.467,1.226
		c-1.017-0.03-1.516,0.549-1.464,1.576c0.278,1.456,2.316,1.272,2.608,2.942c0.128,0.735,0.325,1.16-0.294,1.607
		c-0.688,0.498-0.896-0.003-1.424-0.441c-0.808-0.67-1.033-1.499-1.487-2.304c-0.767-1.358-1.09-0.128-1.494,0.399
		c-0.044-0.283-0.229-0.62-0.463-0.52C104.485,242.396,104.546,242.819,104.691,243.187z M103.383,236.578
		c0.883,0.376,1.767,0.753,2.971,1.268c-1.199-1.99-1.313-2.025-2.936-1.235c-0.776,0.497-1.212,1.085-0.554,2.184
		C103.479,238.025,103.374,237.288,103.383,236.578z"/>
	<path fill-rule="evenodd" clip-rule="evenodd" fill="#CE9B2B" d="M176.828,240.257c-1.383,0.099-2.766,0.195-4.148,0.292
		c-0.123-0.116-0.262-0.206-0.417-0.27c-0.922-0.615-1.819-1.274-2.773-1.84c-12.758-7.556-20.036-18.813-22.429-33.324
		c-0.508-3.083-0.739-6.211-1.09-9.32c-0.049-0.443-0.07-0.893-0.074-1.339c-0.006-0.731,0.215-1.368,1.06-1.396
		c0.726-0.024,0.862,0.587,0.919,1.159c0.167,1.669,0.347,3.338,0.465,5.01c0.253,3.58,0.942,7.082,1.836,10.549
		c3.129,12.14,10.323,21.136,21.14,27.33C173.153,238.158,174.991,239.207,176.828,240.257z"/>
	<path fill-rule="evenodd" clip-rule="evenodd" fill="#A5A6A7" d="M50.013,196.826c0.226,0.142,0.453,0.283,0.679,0.425
		c-0.905,4.019-3.251,7.302-5.449,10.658c-2.34,3.573-5.35,6.582-8.206,9.723c-1.592,1.751-2.956,3.654-3.326,6.075
		c-0.239,1.564,0.256,2.009,1.847,1.583c0.511-0.136,0.93-0.629,1.551-0.118c-0.471,0.848-1.05,1.676-1.405,2.591
		c-0.349,0.9-0.863,2.038,0.087,2.774c0.771,0.599,1.713-0.02,2.523-0.387c0.731-0.332,1.075-1.368,2.078-1.339
		c0.233,0.878-0.195,1.458-0.428,2.037c-0.304,0.756-0.167,1.29,0.426,1.755c0.594,0.466,1.27,0.387,1.902,0.141
		c0.763-0.298,1.202-0.976,1.625-1.631c0.486-0.754,0.446-1.824,1.25-2.497c1.05,1.245,1.134,2.648,1.682,3.857
		c0.695,1.534,1.411,3.047,2.616,4.246c1.47,1.464,3.175,1.983,5.189,1.161c2.652-1.084,3.61-2.556,2.683-5.6
		c-1.039-3.41-0.213-6.391,1.196-9.354c0.813-1.709,1.799-3.339,2.777-4.963c1.846-3.067,3.416-6.257,4.498-9.676
		c0.395,0.226,0.572,0.588,0.638,1.02c-0.995,3.096-2.423,5.986-4.11,8.76c-0.87,1.43-1.729,2.87-2.503,4.353
		c-1.628,3.116-2.568,6.22-1.569,9.914c1.126,4.163-1.923,7.289-6.109,6.828c-1.801-0.198-3.132-1.211-4.08-2.64
		c-1.043-1.572-1.899-3.268-2.844-4.919c-0.926,0.242-1.215,1.229-1.968,1.69c-1.494,0.917-3.2,0.937-3.8-0.397
		c-0.601-1.337-1.208-1.41-2.495-1.292c-2.54,0.232-2.83-0.21-2.502-2.823c0.109-0.868,0.436-1.69-0.686-2.278
		c-1.331-0.698-1.25-1.999-0.967-3.251c0.505-2.232,1.664-4.111,3.128-5.847c2.523-2.987,5.449-5.618,7.69-8.862
		C46.178,204.857,48.624,201.135,50.013,196.826z"/>
	<path fill-rule="evenodd" clip-rule="evenodd" fill="#A5A6A7" d="M237.062,183.304c-0.709,4.21-0.415,8.485-0.949,12.728
		c-0.754,5.99-1.239,12.029-0.9,18.099c0.158,2.833,0.722,5.505,2.028,8.049c0.762,1.484,1.377,3.066,1.865,4.663
		c0.613,2.011,0.108,3.412-1.232,4.122c-1.371,0.728-3.483,0.45-4.665-0.767c-0.689-0.713-1.192-1.61-1.739-2.451
		c-0.365-0.562-0.654-1.171-0.986-1.754c-0.501-0.885-0.984-1.876-2.225-1.709c-1.437,0.195-2.146,1.309-2.27,2.563
		c-0.164,1.662-0.003,3.356,0.017,5.036c0.02,1.606-0.176,3.119-1.481,4.291c-1.644,1.473-2.717,1.304-3.425-0.794
		c-0.604-1.792-0.981-3.664-1.391-5.515c-0.171-0.776-0.318-1.534-0.912-2.284c-1.165,0.431-1.252,1.655-1.737,2.547
		c-1.067,1.961-1.915,4.05-3.396,5.766c-0.963,1.113-2.243,1.741-3.585,1.099c-1.194-0.571-1.947-1.646-1.928-3.209
		c0.022-2.001,0.931-3.652,1.656-5.401c0.846-2.039,2.422-3.785,2.474-6.144c0.207-0.183,0.415-0.366,0.622-0.55
		c1.183,1.205,0.109,2.244-0.33,3.245c-0.808,1.838-1.862,3.567-2.654,5.41c-0.521,1.213-1.033,2.481-0.838,3.888
		c0.268,1.926,1.794,2.604,3.358,1.416c1.477-1.121,2.175-2.809,2.993-4.393c0.817-1.585,1.533-3.225,2.412-4.772
		c0.535-0.941,1.271-0.783,1.756,0.117c0.857,1.592,1.204,3.357,1.539,5.11c0.292,1.527,0.55,3.049,1.499,4.372
		c1.792-0.599,2.442-1.901,2.45-3.601c0.007-1.566-0.008-3.135-0.086-4.699c-0.065-1.301,0.271-2.436,1.148-3.389
		c1.421-1.545,3.271-1.517,4.575,0.169c0.674,0.873,1.147,1.907,1.678,2.886c0.484,0.893,0.976,1.797,1.826,2.37
		c0.993,0.671,2.165,0.793,3.187,0.194c1.128-0.66,1.208-1.765,0.745-2.939c-0.449-1.142-0.701-2.387-1.305-3.433
		c-2.829-4.898-2.895-10.247-2.625-15.634c0.413-8.262,1.668-16.466,1.762-24.752C236.348,183.271,236.704,183.287,237.062,183.304z
		"/>
	<path fill-rule="evenodd" clip-rule="evenodd" fill="#A5A6A7" d="M210.33,222.146c-2.039,0.906-4.09,1.778-6.254,2.363
		c-1.342,0.36-2.626,0.591-3.862-0.547c0.547-1.943,1.993-3.182,3.569-4.221c1.582-1.043,3.226-2.042,4.955-2.803
		c5.033-2.218,8.181-6.122,10.197-11.068c1.659-4.066,2.566-8.307,2.8-12.702c0.652-12.271-1.372-24.061-6.208-35.363
		c-0.218-0.512-0.448-1.021-0.608-1.553c-0.049-0.162,0.115-0.39,0.189-0.612c0.974,0.183,0.972,1.128,1.241,1.751
		c5.339,12.367,7.378,25.28,6.077,38.679c-0.356,3.667-1.289,7.265-2.754,10.674c-2.054,4.784-5.172,8.597-10.017,10.844
		c-1.72,0.798-3.367,1.769-4.986,2.761c-1.213,0.743-2.407,1.576-3.046,3.136c1.667,0.559,2.963-0.059,4.315-0.521
		c1.459-0.5,2.806-1.396,4.43-1.363C210.296,221.776,210.284,221.96,210.33,222.146z"/>
	<path fill-rule="evenodd" clip-rule="evenodd" fill="#A5A6A7" d="M191.435,103.902c10.654,3.709,35.611,29.176,39.163,39.744
		C219.834,127.913,207.499,114.057,191.435,103.902z"/>
	<path fill-rule="evenodd" clip-rule="evenodd" fill="#A5A6A7" d="M181.528,115.322c-0.042-0.401,0.077-0.71,0.489-0.85
		c13.117,11.281,25.065,23.521,32.326,39.616C205.957,138.99,194.731,126.313,181.528,115.322z"/>
	<path fill-rule="evenodd" clip-rule="evenodd" fill="#CE9B2B" d="M150.332,240.239c-0.476,0.007-0.952,0.014-1.428,0.021
		c-5.886-8.662-10.105-18.096-12.997-28.139c-0.282-0.98-0.867-1.971-0.144-3.131C139.218,220.091,143.413,230.808,150.332,240.239z
		"/>
	<path fill-rule="evenodd" clip-rule="evenodd" fill="#C6C8CA" d="M26.385,196.72c0.238-0.04,0.475-0.062,0.691,0.078
		c-0.415,0.438-0.852,0.854-1.237,1.315c-0.623,0.744-0.623,1.136,0.011,1.846c0.298,0.335,0.655,0.622,1.009,0.9
		c0.851,0.669,1.246,1.53,1.233,2.612c-0.006,0.595-0.076,1.208,0.223,1.772c0.146,0.277,0.334,0.531,0.661,0.541
		c0.327,0.009,0.491-0.264,0.683-0.504c0.271-0.34,0.071-0.943,0.709-1.136c0.186,0.771-0.136,1.37-0.613,1.857
		c-0.639,0.654-1.695,0.286-1.972-0.703c-0.16-0.572-0.219-1.19-0.217-1.787c0.004-1.042-0.364-1.848-1.243-2.421
		c-0.208-0.136-0.396-0.31-0.575-0.483c-1.079-1.043-1.122-1.882-0.16-2.994C25.848,197.312,26.119,197.018,26.385,196.72z"/>
	<path fill-rule="evenodd" clip-rule="evenodd" fill="#A5A6A7" d="M162.479,196.561c0.218-0.048,0.439-0.079,0.663-0.091
		c0.898,2.866,1.786,5.735,2.7,8.595c2.114,6.608,5.759,11.792,12.851,13.75c-0.019,0.206-0.015,0.413,0.015,0.619
		c-5.043-0.679-8.497-3.617-10.963-7.857C165.033,206.916,163.598,201.789,162.479,196.561z"/>
	<path fill-rule="evenodd" clip-rule="evenodd" fill="#A5A6A7" d="M196.846,198.69c2.48,0.492,3.655,2.388,4.519,4.452
		c1.114,2.666,0.002,4.804-2.786,5.71c-1.273,0.413-2.598,0.526-4.139,0.555c-0.21,1.44,0.697,3.468-1.639,3.964
		c0.003-0.222,0.005-0.444,0.008-0.666c1.618-1.621-0.097-3.018-0.461-4.494c1.032-0.407,1.876,0.047,2.735,0.063
		c0.876,0.018,1.776-0.048,2.629-0.242c3.096-0.701,3.898-2.611,2.368-5.407c-0.77-1.407-1.935-2.397-3.227-3.276
		C196.89,199.129,196.888,198.91,196.846,198.69z"/>
	<path fill-rule="evenodd" clip-rule="evenodd" fill="#A5A6A7" d="M236.406,168.086c-1.094-2.173-0.566-4.586-0.977-6.876
		c-0.924-5.166-2.103-10.219-4.209-15.036c-0.171-0.389-0.337-0.839,0.221-1.453c2.007,3.424,2.873,7.146,3.861,10.821
		c1.075,3.996,1.203,8.131,1.772,12.201C236.851,167.857,236.628,167.972,236.406,168.086z"/>
	<path fill-rule="evenodd" clip-rule="evenodd" fill="#A5A6A7" d="M30.166,197.274c0.233-0.03,0.465-0.05,0.677,0.087
		c-0.013,1.647-0.012,3.295-0.044,4.94c-0.01,0.52,0.052,1.08-0.575,1.833C30.202,201.626,30.184,199.45,30.166,197.274z"/>
	<path fill-rule="evenodd" clip-rule="evenodd" fill="#C6C8CA" d="M192.809,212.705c-0.002,0.222-0.004,0.444-0.008,0.666
		c-0.771,0.102-1.541,0.204-2.334,0.311c-0.409,0.933,0.819,1.895-0.122,2.798c-0.777,0.746-1.661,1.096-2.722,1.079
		c-0.784-0.011-1.567-0.008-2.351,0.023c-0.518,0.021-1.312-0.102-1.217,0.689c0.177,1.48-0.771,1.342-1.66,1.322
		c-1.23-0.027-2.458-0.105-3.688-0.16c-0.029-0.206-0.034-0.413-0.015-0.619c1.006-0.004,2.013-0.002,3.018-0.014
		c0.439-0.005,1.046-0.06,0.84-0.639c-0.526-1.48,0.36-1.39,1.316-1.355c1.005,0.036,2.016,0.095,3.016,0.028
		c3.232-0.216,3.443-0.663,1.75-3.547c-0.155-0.265-0.114-0.423,0.421-0.583C190.148,212.705,191.479,212.705,192.809,212.705z"/>
	<path fill-rule="evenodd" clip-rule="evenodd" fill="#A5A6A7" d="M183.321,187.931c0.364-0.151,0.728-0.305,1.084-0.454
		c0.087,2.63,1.147,4.949,2.253,7.267c0.994,2.083,2.8,3.107,4.82,3.892c-0.023,0.203-0.018,0.406,0.016,0.609
		c-2.809-0.077-4.452-1.807-5.666-4.074C184.611,192.896,183.803,190.467,183.321,187.931z"/>
	<path fill-rule="evenodd" clip-rule="evenodd" fill="#A5A6A7" d="M107.438,240.541c-0.052-1.027,0.447-1.606,1.464-1.576
		c0.912,0.025,1.413-0.295,1.467-1.226c0.912-1.075,1.651,0.686,2.53,0.154c0.134,0.433,0.488,0.965,0.348,1.271
		c-0.198,0.431-0.534,1.155-1.185,0.975C110.45,239.692,108.984,240.487,107.438,240.541z"/>
	<path fill-rule="evenodd" clip-rule="evenodd" fill="#A5A6A7" d="M237.148,168.434c0.022,4.229,0.044,8.458,0.065,12.688
		c-0.342,0.033-0.684,0.065-1.025,0.099c0.538-4.385,0.076-8.786,0.217-13.178C236.652,168.174,236.9,168.303,237.148,168.434z"/>
	<path fill-rule="evenodd" clip-rule="evenodd" fill="#C6C8CA" d="M191.494,199.244c-0.034-0.203-0.039-0.406-0.016-0.609
		c1.789,0.019,3.578,0.037,5.368,0.056c0.042,0.22,0.044,0.438,0.006,0.658C195.067,199.313,193.281,199.278,191.494,199.244z"/>
	<path fill-rule="evenodd" clip-rule="evenodd" fill="#625D5C" d="M236.188,181.221c0.342-0.033,0.684-0.065,1.025-0.099
		c0.155,0.741,0.188,1.475-0.151,2.182c-0.358-0.017-0.714-0.033-1.072-0.05C235.812,182.552,235.706,181.858,236.188,181.221z"/>
	<path fill-rule="evenodd" clip-rule="evenodd" fill="#F5F5F5" d="M210.33,222.146c-0.046-0.186-0.034-0.369,0.037-0.547
		c0.849-0.096,1.699-0.183,2.534,0.089c-0.207,0.184-0.415,0.367-0.622,0.55C211.63,222.207,210.98,222.176,210.33,222.146z"/>
	<path fill-rule="evenodd" clip-rule="evenodd" fill="#C34227" d="M128.15,31.015c-0.828-0.27-1.255-0.825-1.218-1.712
		C127.632,29.665,127.977,30.279,128.15,31.015z"/>
	<path fill-rule="evenodd" clip-rule="evenodd" fill="#625D5C" d="M237.148,168.434c-0.248-0.131-0.496-0.26-0.743-0.391
		c0,0.002,0.002,0.043,0.002,0.043c0.221-0.114,0.444-0.229,0.667-0.343c0.061,0.152,0.139,0.302,0.174,0.459
		C237.263,168.27,237.184,168.355,237.148,168.434z"/>
	<path fill-rule="evenodd" clip-rule="evenodd" fill="#A5A6A7" d="M107.347,227.802c0.469,0.141,0.701,0.323,0.116,0.653
		C107.465,228.229,107.426,228.012,107.347,227.802z"/>
	<path fill-rule="evenodd" clip-rule="evenodd" fill="#191818" d="M105.953,143.461c0.251,0.142,0.504,0.284,0.757,0.426
		C106.38,143.885,105.938,144.079,105.953,143.461z"/>
	<path fill-rule="evenodd" clip-rule="evenodd" fill="none" stroke="#191818" stroke-width="0.031" stroke-miterlimit="10" d="
		M118.064,102.51c2.832-2.118,6.008-3.668,8.646-6.164c5.318-5.03,8.343-11.152,9.919-18.146c2.401,1.901,3.157,4.464,3.149,7.419
		c-0.006,2.6-0.326,5.124-1.148,7.587c-1.693,5.077-5.073,8.389-10.336,9.499C124.905,103.42,121.454,103.599,118.064,102.51z"/>
	<path fill-rule="evenodd" clip-rule="evenodd" fill="#EF99B5" d="M114.02,79.985c0.339,1.394,0.603,2.812,1.035,4.177
		c0.643,2.035,0.076,3.951-0.411,5.88c-0.233,0.926-0.768,1.616-1.831,1.609c-0.917-0.005-1.349-0.664-1.683-1.394
		c-0.98-2.143-1.198-4.48-1.668-6.75c-0.157-0.757-0.12-1.555-0.727-2.151c0.334-1.216-0.502-2.985,0.872-3.6
		c1.481-0.661,2.444,0.968,3.559,1.749C113.432,79.693,113.734,79.827,114.02,79.985z"/>
	<path fill-rule="evenodd" clip-rule="evenodd" fill="#625D5C" d="M108.587,94.408c8.774,1.652,10.241,1.142,16.895-5.969
		C123.954,95.216,113.755,98.819,108.587,94.408z"/>
	<path fill-rule="evenodd" clip-rule="evenodd" fill="#625D5C" d="M124.691,82.217c-2.835-1.054-5.757-0.579-9.275-0.43
		C119.754,79.771,121.998,79.899,124.691,82.217z"/>
	<path fill-rule="evenodd" clip-rule="evenodd" fill="#625D5C" d="M105.886,84.102c-1.797,0.766-3.594,1.531-5.391,2.297
		C101.693,84.28,103.516,83.57,105.886,84.102z"/>
	<path fill-rule="evenodd" clip-rule="evenodd" fill="#C6C8CA" d="M16.279,148.237c0.106-0.344,0.163-0.956,0.328-0.986
		c0.739-0.14,0.485,0.547,0.584,0.914c0.07,0.26,0.027,0.55,0.034,0.826C16.741,148.951,16.479,148.633,16.279,148.237z"/>
	<path fill-rule="evenodd" clip-rule="evenodd" fill="#A5A6A7" d="M103.418,236.611c1.622-0.791,1.736-0.756,2.936,1.234
		c-1.204-0.515-2.087-0.892-2.971-1.268L103.418,236.611z"/>
	<path fill-rule="evenodd" clip-rule="evenodd" fill="#625D5C" d="M103.383,236.578c-0.009,0.71,0.096,1.447-0.519,2.216
		c-0.658-1.099-0.223-1.687,0.554-2.183L103.383,236.578z"/>
	<path fill-rule="evenodd" clip-rule="evenodd" fill="#191818" d="M101.946,242.312c0.295-0.267,0.617-0.479,0.946-0.079
		c0.331,0.404-0.07,0.678-0.233,0.988C102.421,242.918,102.184,242.614,101.946,242.312z"/>
	<path fill-rule="evenodd" clip-rule="evenodd" fill="#191818" d="M104.691,243.187c-0.145-0.367-0.206-0.79,0.193-0.961
		c0.233-0.101,0.419,0.236,0.463,0.52C105.129,242.892,104.91,243.038,104.691,243.187z"/>
</g>
</svg>